<?xml version="1.0" encoding="utf-8"?>
<!-- Generator: Adobe Illustrator 24.0.0, SVG Export Plug-In . SVG Version: 6.00 Build 0)  -->
<svg version="1.1" id="Layer_1" xmlns="http://www.w3.org/2000/svg" xmlns:xlink="http://www.w3.org/1999/xlink" x="0px" y="0px"
	 viewBox="0 0 32 32" style="enable-background:new 0 0 32 32;" xml:space="preserve">
<style type="text/css">
	.st0{fill:#499A18;}
</style>
<path class="st0" d="M17.4,2.7c2.4,0,2.9,0,4.1,0.1c1.4,0.1,2.4,0.3,3.2,0.6c0.9,0.3,1.6,0.8,2.4,1.5c0.7,0.7,1.2,1.5,1.5,2.4
	c0.3,0.8,0.5,1.8,0.6,3.2c0.1,1.3,0.1,1.8,0.1,4.4v2.1c0,2.7,0,3.2-0.1,4.4c0,1.2-0.2,2.3-0.6,3.3l0-0.1c-0.3,0.9-0.8,1.6-1.5,2.4
	c-0.7,0.7-1.5,1.2-2.4,1.5c-0.8,0.3-1.8,0.5-3.2,0.6c-1.3,0.1-1.8,0.1-4.4,0.1h-2.1c-2.7,0-3.2,0-4.4-0.1c-1.2,0-2.3-0.2-3.3-0.6
	l0.1,0c-0.9-0.4-1.7-0.9-2.4-1.5l0,0c-0.7-0.7-1.2-1.4-1.5-2.3l0,0c-0.4-1-0.6-2.1-0.6-3.2v0c-0.1-1-0.1-2.3-0.1-3.5
	c0-0.2,0-0.5,0-0.7v0v-2.7c0-2.4,0-2.9,0.1-4.1C2.8,9.1,3,8.1,3.4,7.3c0.3-0.9,0.8-1.6,1.5-2.4c0.6-0.7,1.4-1.2,2.3-1.5l0,0
	c1-0.4,2.1-0.6,3.2-0.6h0c1.2-0.1,1.7-0.1,4.1-0.1H17.4z M17.4,5.1h-2.8c-2.3,0-2.8,0-4,0.1c-1.3,0.1-2,0.3-2.5,0.5
	c-0.6,0.2-1.1,0.5-1.5,1s-0.8,0.9-1,1.5c-0.2,0.5-0.4,1.2-0.5,2.5c-0.1,1.2-0.1,1.7-0.1,4v2.8c0,2.3,0,2.8,0.1,4
	c0.1,1.3,0.3,2,0.5,2.5c0.2,0.6,0.5,1.1,1,1.5s0.9,0.8,1.5,1c0.5,0.2,1.2,0.4,2.5,0.5c1.3,0.1,1.8,0.1,4.6,0.1h1.5
	c2.9,0,3.3,0,4.7-0.1c1.3-0.1,2-0.3,2.5-0.5c0.6-0.2,1.1-0.5,1.5-1c0.5-0.5,0.8-0.9,1-1.5c0.2-0.5,0.4-1.2,0.5-2.5
	c0.1-1.3,0.1-1.8,0.1-4.7v-1.5c0-2.9,0-3.4-0.1-4.7c-0.1-1.3-0.3-2-0.5-2.5c-0.2-0.6-0.6-1.1-1-1.5l0,0c-0.4-0.4-0.9-0.8-1.5-1l0,0
	c-0.7-0.3-1.6-0.4-2.5-0.5h0c-1-0.1-2.2-0.1-3.4-0.1C17.7,5.1,17.6,5.1,17.4,5.1L17.4,5.1L17.4,5.1z M16,9.1c3.8,0,6.8,3.1,6.8,6.8
	s-3.1,6.8-6.8,6.8c-3.8,0-6.8-3.1-6.8-6.8S12.2,9.1,16,9.1z M16,11.5c-2.5,0-4.4,2-4.4,4.4s2,4.4,4.4,4.4s4.4-2,4.4-4.4
	S18.5,11.5,16,11.5z M23.1,7.3c0.9,0,1.6,0.7,1.6,1.6c0,0.9-0.7,1.6-1.6,1.6c-0.9,0-1.6-0.7-1.6-1.6C21.5,8,22.2,7.3,23.1,7.3z"/>
</svg>
