<?xml version="1.0" encoding="utf-8"?>
<!-- Generator: Adobe Illustrator 24.0.0, SVG Export Plug-In . SVG Version: 6.00 Build 0)  -->
<svg version="1.1" id="Layer_1" xmlns="http://www.w3.org/2000/svg" xmlns:xlink="http://www.w3.org/1999/xlink" x="0px" y="0px"
	 viewBox="0 0 32 32" style="enable-background:new 0 0 32 32;" xml:space="preserve">
<style type="text/css">
	.st0{fill:#499A18;}
</style>
<path class="st0" d="M16,2.7C8.7,2.7,2.7,8.7,2.7,16c0,5.6,3.5,10.4,8.3,12.4l0.1,0c-0.1-1.1-0.2-2.7,0-3.8l1.6-6.6
	c0,0-0.4-0.8-0.4-2c0-1.9,1.1-3.2,2.4-3.2c1.1,0,1.7,0.9,1.7,1.9c0,1.1-0.7,2.9-1.1,4.4c-0.3,1.3,0.7,2.4,2,2.4
	c2.4,0,4.2-2.5,4.2-6.1c0-3.2-2.3-5.4-5.6-5.4c-0.1,0-0.2,0-0.3,0c-3.2,0-5.8,2.6-5.8,5.8c0,0,0,0,0,0c0,1.1,0.4,2.4,1,3
	C11,18.9,11,19,11,19.2l-0.4,1.5c-0.1,0.2-0.2,0.3-0.4,0.2c-1.7-0.8-2.7-3.2-2.7-5.2c0-4.2,3.1-8.1,8.8-8.1c4.6,0,8.2,3.3,8.2,7.7
	c0,4.6-2.9,8.3-6.9,8.3c-1.3,0-2.6-0.7-3-1.5l-0.8,3.2c-0.4,1.3-1,2.5-1.7,3.6l0-0.1c1.2,0.4,2.5,0.6,3.9,0.6
	c7.4,0,13.3-6,13.3-13.3C29.3,8.7,23.3,2.7,16,2.7L16,2.7L16,2.7z"/>
</svg>
