<?xml version="1.0" encoding="utf-8"?>
<!-- Generator: Adobe Illustrator 24.0.0, SVG Export Plug-In . SVG Version: 6.00 Build 0)  -->
<svg version="1.1" id="Layer_1" xmlns="http://www.w3.org/2000/svg" xmlns:xlink="http://www.w3.org/1999/xlink" x="0px" y="0px"
	 viewBox="0 0 32 32" style="enable-background:new 0 0 32 32;" xml:space="preserve">
<style type="text/css">
	.st0{fill:#499A18;}
</style>
<path class="st0" d="M29.3,7.8c-1,0.5-2,0.7-3.2,0.8c1.2-0.7,2-1.7,2.3-3c-1,0.6-2.2,1.1-3.4,1.3L25,7c-1-1-2.4-1.6-4-1.7h0
	c-2.8,0-5.3,2.5-5.3,5.5c0,0.5,0,0.8,0.2,1.2c-4.6-0.2-8.6-2.3-11.3-5.6l0,0C4.1,7.1,3.8,7.9,3.8,8.9c0,0.1,0,0.2,0,0.3l0,0
	c0,1.9,1,3.5,2.5,4.5l0,0c-0.8,0-1.7-0.3-2.5-0.7c0,2.7,1.8,4.8,4.3,5.3c-0.5,0.2-1,0.2-1.5,0.2c-0.3,0-0.7,0-1-0.2
	c0.7,2.2,2.7,3.8,5.2,3.8c-1.8,1.5-4.1,2.3-6.6,2.3c-0.1,0-0.1,0-0.2,0h0H2.7C5,26,7.9,26.9,11,27h0c10,0,15.5-8.3,15.5-15.5v-0.7
	C27.7,10,28.6,9,29.3,7.8L29.3,7.8L29.3,7.8z"/>
</svg>
